<svg xmlns="http://www.w3.org/2000/svg" viewBox="0 0 120 120" fill="none">
  <circle cx="60" cy="60" r="58" fill="#1a237e" stroke="#FF9933" stroke-width="3"/>
  <circle cx="60" cy="60" r="44" fill="none" stroke="#ffffff" stroke-width="1.5" stroke-dasharray="4 2"/>
  <!-- Ashoka Chakra simplified -->
  <circle cx="60" cy="60" r="18" fill="none" stroke="#ffffff" stroke-width="2"/>
  <circle cx="60" cy="60" r="4" fill="#FF9933"/>
  <line x1="68" y1="60" x2="77" y2="60" stroke="#ffffff" stroke-width="1.2"/><line x1="67.72740661031254" y1="62.070552360820166" x2="76.42073904691416" y2="64.39992376674286" stroke="#ffffff" stroke-width="1.2"/><line x1="66.92820323027551" y1="64" x2="74.72243186433546" y2="68.5" stroke="#ffffff" stroke-width="1.2"/><line x1="65.65685424949238" y1="65.65685424949238" x2="72.0208152801713" y2="72.0208152801713" stroke="#ffffff" stroke-width="1.2"/><line x1="64" y1="66.92820323027551" x2="68.5" y2="74.72243186433546" stroke="#ffffff" stroke-width="1.2"/><line x1="62.070552360820166" y1="67.72740661031254" x2="64.39992376674286" y2="76.42073904691416" stroke="#ffffff" stroke-width="1.2"/><line x1="60" y1="68" x2="60" y2="77" stroke="#ffffff" stroke-width="1.2"/><line x1="57.929447639179834" y1="67.72740661031254" x2="55.60007623325715" y2="76.42073904691416" stroke="#ffffff" stroke-width="1.2"/><line x1="56" y1="66.92820323027551" x2="51.5" y2="74.72243186433546" stroke="#ffffff" stroke-width="1.2"/><line x1="54.34314575050762" y1="65.65685424949238" x2="47.979184719828694" y2="72.0208152801713" stroke="#ffffff" stroke-width="1.2"/><line x1="53.07179676972449" y1="64" x2="45.27756813566454" y2="68.5" stroke="#ffffff" stroke-width="1.2"/><line x1="52.27259338968746" y1="62.070552360820166" x2="43.579260953085836" y2="64.39992376674286" stroke="#ffffff" stroke-width="1.2"/><line x1="52" y1="60" x2="43" y2="60" stroke="#ffffff" stroke-width="1.2"/><line x1="52.27259338968745" y1="57.929447639179834" x2="43.579260953085836" y2="55.600076233257155" stroke="#ffffff" stroke-width="1.2"/><line x1="53.07179676972449" y1="56" x2="45.277568135664545" y2="51.5" stroke="#ffffff" stroke-width="1.2"/><line x1="54.34314575050762" y1="54.34314575050762" x2="47.97918471982869" y2="47.979184719828694" stroke="#ffffff" stroke-width="1.2"/><line x1="56" y1="53.07179676972449" x2="51.49999999999999" y2="45.277568135664545" stroke="#ffffff" stroke-width="1.2"/><line x1="57.929447639179834" y1="52.27259338968745" x2="55.60007623325715" y2="43.579260953085836" stroke="#ffffff" stroke-width="1.2"/><line x1="60" y1="52" x2="60" y2="43" stroke="#ffffff" stroke-width="1.2"/><line x1="62.070552360820166" y1="52.27259338968746" x2="64.39992376674286" y2="43.579260953085836" stroke="#ffffff" stroke-width="1.2"/><line x1="64" y1="53.07179676972449" x2="68.5" y2="45.277568135664545" stroke="#ffffff" stroke-width="1.2"/><line x1="65.65685424949238" y1="54.34314575050762" x2="72.0208152801713" y2="47.97918471982869" stroke="#ffffff" stroke-width="1.2"/><line x1="66.9282032302755" y1="56" x2="74.72243186433545" y2="51.49999999999999" stroke="#ffffff" stroke-width="1.2"/><line x1="67.72740661031254" y1="57.929447639179834" x2="76.42073904691416" y2="55.60007623325715" stroke="#ffffff" stroke-width="1.2"/>
  <!-- ECI text -->
  <text x="60" y="95" text-anchor="middle" font-family="Arial" font-weight="bold" font-size="11" fill="#FF9933">ECI</text>
  <text x="60" y="108" text-anchor="middle" font-family="Arial" font-size="6.5" fill="#ffffff">ELECTION COMMISSION</text>
  <!-- Stars -->
  <text x="30" y="50" font-size="8" fill="#FF9933">★</text>
  <text x="84" y="50" font-size="8" fill="#FF9933">★</text>
</svg>