<svg xmlns="http://www.w3.org/2000/svg" viewBox="0 0 120 120" fill="none">
  <circle cx="60" cy="60" r="58" fill="#fff8e1" stroke="#FF9933" stroke-width="2"/>
  <!-- Lion capital simplified -->
  <ellipse cx="60" cy="72" rx="28" ry="8" fill="#FF9933" fill-opacity="0.3"/>
  <rect x="44" y="48" width="32" height="24" rx="4" fill="#FF9933" fill-opacity="0.5"/>
  <!-- Ashoka Chakra -->
  <circle cx="60" cy="42" r="14" fill="none" stroke="#1a237e" stroke-width="2"/>
  <circle cx="60" cy="42" r="3" fill="#1a237e"/>
  <line x1="60" y1="37" x2="60" y2="29" stroke="#1a237e" stroke-width="1"/><line x1="61.294095225512606" y1="37.170370868554656" x2="63.36464758633277" y2="29.442964258242114" stroke="#1a237e" stroke-width="1"/><line x1="62.5" y1="37.66987298107781" x2="66.5" y2="30.7416697508023" stroke="#1a237e" stroke-width="1"/><line x1="63.53553390593274" y1="38.46446609406726" x2="69.19238815542512" y2="32.80761184457488" stroke="#1a237e" stroke-width="1"/><line x1="64.3301270189222" y1="39.5" x2="71.2583302491977" y2="35.5" stroke="#1a237e" stroke-width="1"/><line x1="64.82962913144534" y1="40.705904774487394" x2="72.55703574175789" y2="38.63535241366723" stroke="#1a237e" stroke-width="1"/><line x1="65" y1="42" x2="73" y2="42" stroke="#1a237e" stroke-width="1"/><line x1="64.82962913144534" y1="43.294095225512606" x2="72.55703574175789" y2="45.36464758633277" stroke="#1a237e" stroke-width="1"/><line x1="64.3301270189222" y1="44.5" x2="71.2583302491977" y2="48.5" stroke="#1a237e" stroke-width="1"/><line x1="63.53553390593274" y1="45.53553390593274" x2="69.19238815542512" y2="51.19238815542512" stroke="#1a237e" stroke-width="1"/><line x1="62.5" y1="46.33012701892219" x2="66.5" y2="53.2583302491977" stroke="#1a237e" stroke-width="1"/><line x1="61.294095225512606" y1="46.829629131445344" x2="63.36464758633277" y2="54.557035741757886" stroke="#1a237e" stroke-width="1"/><line x1="60" y1="47" x2="60" y2="55" stroke="#1a237e" stroke-width="1"/><line x1="58.705904774487394" y1="46.829629131445344" x2="56.63535241366723" y2="54.557035741757886" stroke="#1a237e" stroke-width="1"/><line x1="57.5" y1="46.33012701892219" x2="53.5" y2="53.258330249197705" stroke="#1a237e" stroke-width="1"/><line x1="56.46446609406726" y1="45.53553390593274" x2="50.80761184457488" y2="51.19238815542512" stroke="#1a237e" stroke-width="1"/><line x1="55.66987298107781" y1="44.5" x2="48.741669750802295" y2="48.5" stroke="#1a237e" stroke-width="1"/><line x1="55.170370868554656" y1="43.294095225512606" x2="47.442964258242114" y2="45.36464758633277" stroke="#1a237e" stroke-width="1"/><line x1="55" y1="42" x2="47" y2="42" stroke="#1a237e" stroke-width="1"/><line x1="55.170370868554656" y1="40.7059047744874" x2="47.442964258242114" y2="38.635352413667235" stroke="#1a237e" stroke-width="1"/><line x1="55.66987298107781" y1="39.5" x2="48.7416697508023" y2="35.5" stroke="#1a237e" stroke-width="1"/><line x1="56.46446609406726" y1="38.46446609406726" x2="50.80761184457488" y2="32.80761184457488" stroke="#1a237e" stroke-width="1"/><line x1="57.5" y1="37.66987298107781" x2="53.49999999999999" y2="30.741669750802302" stroke="#1a237e" stroke-width="1"/><line x1="58.705904774487394" y1="37.170370868554656" x2="56.635352413667235" y2="29.442964258242114" stroke="#1a237e" stroke-width="1"/>
  <text x="60" y="96" text-anchor="middle" font-family="Devanagari,Arial" font-size="9" fill="#1a237e" font-weight="bold">सत्यमेव जयते</text>
  <text x="60" y="110" text-anchor="middle" font-family="Arial" font-size="7" fill="#555">GOVT. OF INDIA</text>
</svg>